<svg width="31" height="20" viewBox="0 0 30 19" fill="none" xmlns="http://www.w3.org/2000/svg">
<path d="M8.94253 18.5H0.5V0.5H8.69239C11.4536 0.5 12.7542 1.28983 13.3911 2.12383C14.0468 2.98247 14.102 4.01267 14.102 4.71791C14.102 5.88847 13.7283 6.65962 13.2837 7.18364C12.8301 7.71825 12.2789 8.02356 11.8826 8.21556L10.721 8.77827L11.9585 9.14494C12.4733 9.29746 13.2291 9.6293 13.8519 10.289C14.4639 10.9373 14.9775 11.9327 14.9775 13.4797C14.9775 14.7223 14.6479 15.6321 14.1658 16.308C13.6803 16.9887 13.0181 17.4625 12.3099 17.7919C10.8804 18.4567 9.33552 18.5 8.94253 18.5ZM4.06479 2.74155H3.56478V3.24155V7.67061V8.17061H4.06479H8.19211C8.58448 8.17061 9.30764 8.11547 9.94856 7.74207C10.6307 7.34466 11.1622 6.61805 11.1622 5.42399C11.1622 4.7406 10.9866 4.19835 10.6806 3.78284C10.3771 3.3707 9.97426 3.12238 9.58388 2.97347C8.90233 2.7135 8.17994 2.73358 7.94073 2.74024C7.91404 2.74098 7.89336 2.74155 7.87943 2.74155H4.06479ZM29.0911 14.6537C28.8484 15.2611 28.4898 15.9329 27.9197 16.5076C27.15 17.2834 25.9547 17.9223 24.0135 17.9223C23.3004 17.9223 21.8318 17.7592 20.5573 16.9139C19.3171 16.0914 18.1974 14.5832 18.1974 11.7466C18.1974 10.8055 18.4558 9.23945 19.3144 7.92558C20.1538 6.64122 21.58 5.57095 24.0135 5.57095C26.1801 5.57095 27.5602 6.49503 28.3997 7.79712C29.1759 9.00107 29.5081 10.5609 29.4999 12.0811H21.1056H20.6056V12.5811C20.6056 13.1073 20.6658 14.0303 21.1464 14.8345C21.6532 15.6824 22.5816 16.3226 24.1386 16.3226C25.1079 16.3226 25.8529 15.9489 26.368 15.5197C26.7022 15.2412 26.9551 14.9258 27.1133 14.6537H29.0911ZM26.2038 8.04795L26.2023 8.04633C25.6737 7.44571 24.8407 7.17061 23.9197 7.17061C23.3229 7.17061 22.7905 7.27698 22.3391 7.51869L22.339 7.51878C21.94 7.73265 21.5772 8.01427 21.3075 8.35542L21.3053 8.35818C21.0383 8.70081 20.8796 9.06458 20.7798 9.43166C20.6886 9.75972 20.6252 10.0762 20.6066 10.3668L20.5726 10.8986H21.1056H26.6087H27.1571L27.1066 10.3526C27.0164 9.3789 26.6861 8.60079 26.2038 8.04795ZM4.06479 10.027H3.56478V10.527V15.7584V16.2584H4.06479H8.41098H8.41848C8.63632 16.2585 9.47085 16.2587 10.2665 15.9036C10.6766 15.7206 11.094 15.4359 11.408 14.9934C11.7249 14.5469 11.9127 13.973 11.9127 13.2551C11.9127 11.7999 11.3158 10.9431 10.5201 10.4869C9.77333 10.0588 8.92363 10.027 8.47351 10.027H4.06479ZM26.7966 2.99831H20.8865V2.2652H26.7966V2.99831Z" stroke="url(#paint0_linear_1227_142)"/>
<defs>
<linearGradient id="paint0_linear_1227_142" x1="15" y1="0" x2="15" y2="19" gradientUnits="userSpaceOnUse">
<stop stop-color="#7A72AD"/>
<stop offset="1" stop-color="#403680"/>
</linearGradient>
</defs>
</svg>
