<svg width="23" height="23" viewBox="0 0 17 17" fill="none" xmlns="http://www.w3.org/2000/svg">
<path d="M8.1 0.426316C12.3312 0.426316 15.7737 3.86882 15.7737 8.1C15.7737 12.3312 12.3312 15.7737 8.1 15.7737C3.86882 15.7737 0.426316 12.3312 0.426316 8.1C0.426316 3.86882 3.86882 0.426316 8.1 0.426316ZM8.1 0C3.62667 0 0 3.62667 0 8.1C0 12.5733 3.62667 16.2 8.1 16.2C12.5733 16.2 16.2 12.5733 16.2 8.1C16.2 3.62667 12.5733 0 8.1 0Z" fill="url(#paint0_linear_1029_103)"/>
<path d="M11.6606 15.3106C11.6606 15.3106 10.368 6.32091 4.99728 0.691406M0.114685 7.18249C0.114685 7.18249 10.4315 8.085 13.7888 2.44953M2.90066 14.1331C2.90066 14.1331 6.57721 5.68911 16.1412 8.93465" stroke="url(#paint1_linear_1029_103)" stroke-width="0.8" stroke-miterlimit="10"/>
<defs>
<linearGradient id="paint0_linear_1029_103" x1="8.1" y1="0" x2="8.1" y2="16.2" gradientUnits="userSpaceOnUse">
<stop stop-color="#7A72AD"/>
<stop offset="1" stop-color="#403680"/>
</linearGradient>
<linearGradient id="paint1_linear_1029_103" x1="8.12793" y1="0.691406" x2="8.12793" y2="15.3106" gradientUnits="userSpaceOnUse">
<stop stop-color="#7A72AD"/>
<stop offset="1" stop-color="#403680"/>
</linearGradient>
</defs>
</svg>
