<svg width="23" height="25" viewBox="0 0 23 25" fill="none" xmlns="http://www.w3.org/2000/svg">
<path d="M8.35897 19.9512C3.10256 21.5282 3.10256 17.323 1 16.7974M15.7179 23.1051V19.0366C15.7574 18.5353 15.6897 18.0314 15.5193 17.5583C15.3489 17.0852 15.0797 16.6538 14.7297 16.2928C18.0308 15.9248 21.5 14.6738 21.5 8.93381C21.4997 7.46604 20.9351 6.05456 19.9231 4.9915C20.4023 3.70737 20.3684 2.28797 19.8285 1.02817C19.8285 1.02817 18.5879 0.660218 15.7179 2.58406C13.3084 1.93103 10.7685 1.93103 8.35897 2.58406C5.48897 0.660218 4.24846 1.02817 4.24846 1.02817C3.7085 2.28797 3.67461 3.70737 4.15385 4.9915C3.13424 6.06244 2.56906 7.48668 2.57692 8.96535C2.57692 14.6633 6.04615 15.9143 9.34718 16.3243C9.00131 16.6817 8.73456 17.108 8.5643 17.5753C8.39404 18.0426 8.32408 18.5405 8.35897 19.0366V23.1051" stroke="url(#paint0_linear_1025_92)" stroke-width="2" stroke-linecap="round" stroke-linejoin="round"/>
<defs>
<linearGradient id="paint0_linear_1025_92" x1="11.25" y1="1" x2="11.25" y2="23.1051" gradientUnits="userSpaceOnUse">
<stop stop-color="white"/>
</linearGradient>
</defs>
</svg>
