<svg width="34" height="35" viewBox="0 0 34 35" fill="none" xmlns="http://www.w3.org/2000/svg">
<path d="M0 6C0 2.68629 2.68629 0 6 0H34V35H6C2.68629 35 0 32.3137 0 29V6Z" fill="#4C5155"/>
<path d="M21.2097 27.8398V24.1883C21.2451 23.7384 21.1843 23.2861 21.0314 22.8614C20.8784 22.4368 20.6369 22.0496 20.3227 21.7256C23.2855 21.3954 26.3992 20.2725 26.3992 15.1208C26.399 13.8034 25.8922 12.5366 24.9839 11.5825C25.414 10.4299 25.3836 9.15598 24.899 8.02528C24.899 8.02528 23.7856 7.69504 21.2097 9.42173C19.0471 8.83562 16.7674 8.83562 14.6048 9.42173C12.029 7.69504 10.9156 8.02528 10.9156 8.02528C10.4309 9.15598 10.4005 10.4299 10.8306 11.5825C9.91552 12.5437 9.40827 13.8219 9.41532 15.1491C9.41532 20.2631 12.529 21.3859 15.4918 21.7539C15.1813 22.0747 14.9419 22.4572 14.7891 22.8767C14.6363 23.2961 14.5735 23.743 14.6048 24.1883V27.8398M14.6048 25.0092C9.8871 26.4245 9.8871 22.6503 8 22.1785L14.6048 25.0092Z" stroke="white" stroke-linecap="round" stroke-linejoin="round"/>
</svg>
