<svg width="34" height="38" viewBox="0 0 34 38" fill="none" xmlns="http://www.w3.org/2000/svg">
<path d="M0 6C0 2.68629 2.68629 0 6 0H34V38H6C2.68629 38 0 35.3137 0 32V6Z" fill="#0A66C2"/>
<path d="M20.65 15.2739C22.2015 15.2739 23.6895 15.9349 24.7866 17.1113C25.8837 18.2878 26.5 19.8834 26.5 21.5472V28.866H22.6V21.5472C22.6 20.9926 22.3945 20.4607 22.0288 20.0686C21.6631 19.6764 21.1671 19.4561 20.65 19.4561C20.1328 19.4561 19.6368 19.6764 19.2711 20.0686C18.9054 20.4607 18.7 20.9926 18.7 21.5472V28.866H14.7999V21.5472C14.7999 19.8834 15.4163 18.2878 16.5134 17.1113C17.6105 15.9349 19.0984 15.2739 20.65 15.2739Z" stroke="white" stroke-linecap="round" stroke-linejoin="round"/>
<path d="M10.9 16.3184H7V28.8649H10.9V16.3184Z" stroke="white" stroke-linecap="round" stroke-linejoin="round"/>
<path d="M8.95001 13.1822C10.027 13.1822 10.9 12.246 10.9 11.0911C10.9 9.93621 10.027 9 8.95001 9C7.87305 9 7 9.93621 7 11.0911C7 12.246 7.87305 13.1822 8.95001 13.1822Z" stroke="white" stroke-linecap="round" stroke-linejoin="round"/>
</svg>
