<svg width="55" height="55" viewBox="0 0 55 55" fill="none" xmlns="http://www.w3.org/2000/svg">
<rect x="1" y="1" width="53" height="53" rx="26.5" fill="url(#paint0_linear_879_138)" stroke="url(#paint1_linear_879_138)" stroke-width="2"/>
<path d="M27.62 42.36C26.396 42.36 25.232 42.216 24.128 41.928C23.048 41.616 22.076 41.148 21.212 40.524C20.372 39.876 19.7 39.072 19.196 38.112C18.692 37.152 18.416 36.024 18.368 34.728C18.368 34.512 18.44 34.332 18.584 34.188C18.728 34.02 18.92 33.936 19.16 33.936H21.104C21.368 33.936 21.572 34.02 21.716 34.188C21.884 34.332 21.992 34.524 22.04 34.764C22.136 35.844 22.448 36.72 22.976 37.392C23.504 38.04 24.176 38.52 24.992 38.832C25.808 39.144 26.708 39.3 27.692 39.3C29.516 39.3 30.908 38.7 31.868 37.5C32.828 36.3 33.308 34.704 33.308 32.712V19.932H20.528C20.288 19.932 20.084 19.86 19.916 19.716C19.772 19.548 19.7 19.344 19.7 19.104V17.628C19.7 17.388 19.772 17.196 19.916 17.052C20.084 16.884 20.288 16.8 20.528 16.8H36.044C36.308 16.8 36.512 16.884 36.656 17.052C36.824 17.196 36.908 17.4 36.908 17.664V32.784C36.908 34.728 36.536 36.42 35.792 37.86C35.048 39.3 33.992 40.416 32.624 41.208C31.256 41.976 29.588 42.36 27.62 42.36Z" fill="white"/>
<path d="M24.128 41.928L23.8505 42.8887L23.863 42.8923L23.8756 42.8956L24.128 41.928ZM21.212 40.524L20.6012 41.3158L20.6137 41.3254L20.6265 41.3347L21.212 40.524ZM19.196 38.112L20.0814 37.6472L20.0814 37.6472L19.196 38.112ZM18.368 34.728H17.368V34.7465L17.3687 34.765L18.368 34.728ZM18.584 34.188L19.2911 34.8951L19.3183 34.868L19.3433 34.8388L18.584 34.188ZM21.716 34.188L20.9567 34.8388L21.0068 34.8972L21.0652 34.9473L21.716 34.188ZM22.04 34.764L23.0361 34.6755L23.0313 34.6213L23.0206 34.5679L22.04 34.764ZM22.976 37.392L22.1897 38.0098L22.1952 38.0168L22.2008 38.0237L22.976 37.392ZM24.992 38.832L25.3491 37.8979L25.3491 37.8979L24.992 38.832ZM31.868 37.5L32.6489 38.1247L32.6489 38.1247L31.868 37.5ZM33.308 19.932H34.308V18.932H33.308V19.932ZM19.916 19.716L19.1567 20.3668L19.2068 20.4252L19.2652 20.4753L19.916 19.716ZM19.916 17.052L20.6231 17.7591L20.6231 17.7591L19.916 17.052ZM36.656 17.052L35.8967 17.7028L35.9468 17.7612L36.0052 17.8113L36.656 17.052ZM35.792 37.86L34.9036 37.401L34.9036 37.401L35.792 37.86ZM32.624 41.208L33.1136 42.0801L33.125 42.0734L32.624 41.208ZM27.62 41.36C26.475 41.36 25.3962 41.2254 24.3804 40.9604L23.8756 42.8956C25.0678 43.2066 26.317 43.36 27.62 43.36V41.36ZM24.4055 40.9673C23.4299 40.6854 22.5632 40.2663 21.7975 39.7133L20.6265 41.3347C21.5888 42.0297 22.6661 42.5466 23.8505 42.8887L24.4055 40.9673ZM21.8228 39.7322C21.0994 39.1741 20.52 38.4826 20.0814 37.6472L18.3106 38.5768C18.88 39.6614 19.6446 40.5779 20.6012 41.3158L21.8228 39.7322ZM20.0814 37.6472C19.6592 36.8429 19.4109 35.8666 19.3673 34.691L17.3687 34.765C17.4211 36.1814 17.7248 37.4611 18.3106 38.5768L20.0814 37.6472ZM19.368 34.728C19.368 34.7327 19.3668 34.7615 19.3505 34.8024C19.3337 34.8444 19.3099 34.8763 19.2911 34.8951L17.8769 33.4809C17.5331 33.8247 17.368 34.2646 17.368 34.728H19.368ZM19.3433 34.8388C19.3229 34.8626 19.2864 34.8935 19.2368 34.9152C19.1894 34.9359 19.158 34.936 19.16 34.936V32.936C18.656 32.936 18.1762 33.1272 17.8247 33.5372L19.3433 34.8388ZM19.16 34.936H21.104V32.936H19.16V34.936ZM21.104 34.936C21.1305 34.936 21.1143 34.9402 21.0743 34.9237C21.0298 34.9054 20.9872 34.8743 20.9567 34.8388L22.4753 33.5372C22.1043 33.1045 21.5979 32.936 21.104 32.936V34.936ZM21.0652 34.9473C21.0638 34.9461 21.0611 34.9435 21.058 34.9397C21.0549 34.936 21.0527 34.9325 21.0514 34.9303C21.0502 34.9281 21.0507 34.9285 21.0522 34.9326C21.0537 34.9369 21.0565 34.9457 21.0594 34.9601L23.0206 34.5679C22.9337 34.1332 22.7228 33.7339 22.3668 33.4287L21.0652 34.9473ZM21.0439 34.8525C21.1525 36.074 21.5135 37.1493 22.1897 38.0098L23.7623 36.7742C23.3825 36.2907 23.1195 35.614 23.0361 34.6755L21.0439 34.8525ZM22.2008 38.0237C22.8444 38.8135 23.6631 39.3945 24.6349 39.7661L25.3491 37.8979C24.6889 37.6455 24.1636 37.2665 23.7512 36.7603L22.2008 38.0237ZM24.6349 39.7661C25.5784 40.1268 26.6012 40.3 27.692 40.3V38.3C26.8148 38.3 26.0376 38.1612 25.3491 37.8979L24.6349 39.7661ZM27.692 40.3C29.7565 40.3 31.4628 39.6073 32.6489 38.1247L31.0871 36.8753C30.3532 37.7927 29.2755 38.3 27.692 38.3V40.3ZM32.6489 38.1247C33.7881 36.7007 34.308 34.8631 34.308 32.712H32.308C32.308 34.5449 31.8679 35.8993 31.0871 36.8753L32.6489 38.1247ZM34.308 32.712V19.932H32.308V32.712H34.308ZM33.308 18.932H20.528V20.932H33.308V18.932ZM20.528 18.932C20.509 18.932 20.5119 18.9294 20.5278 18.935C20.5352 18.9376 20.5432 18.9412 20.5509 18.9457C20.5585 18.9502 20.5639 18.9543 20.5668 18.9567L19.2652 20.4753C19.6303 20.7882 20.0711 20.932 20.528 20.932V18.932ZM20.6753 19.0652C20.6777 19.0681 20.6818 19.0735 20.6863 19.0811C20.6908 19.0888 20.6944 19.0968 20.697 19.1042C20.7026 19.1201 20.7 19.123 20.7 19.104H18.7C18.7 19.5609 18.8438 20.0017 19.1567 20.3668L20.6753 19.0652ZM20.7 19.104V17.628H18.7V19.104H20.7ZM20.7 17.628C20.7 17.6079 20.7029 17.6215 20.6903 17.6551C20.6766 17.6918 20.6528 17.7294 20.6231 17.7591L19.2089 16.3449C18.8442 16.7096 18.7 17.1737 18.7 17.628H20.7ZM20.6231 17.7591C20.621 17.7612 20.605 17.7756 20.5758 17.7877C20.5467 17.7996 20.5271 17.8 20.528 17.8V15.8C20.0258 15.8 19.5666 15.9872 19.2089 16.3449L20.6231 17.7591ZM20.528 17.8H36.044V15.8H20.528V17.8ZM36.044 17.8C36.0705 17.8 36.0543 17.8042 36.0142 17.7877C35.9698 17.7694 35.9272 17.7383 35.8967 17.7028L37.4153 16.4012C37.0443 15.9685 36.5379 15.8 36.044 15.8V17.8ZM36.0052 17.8113C35.9697 17.7808 35.9386 17.7382 35.9203 17.6938C35.9038 17.6537 35.908 17.6375 35.908 17.664H37.908C37.908 17.1701 37.7395 16.6637 37.3068 16.2927L36.0052 17.8113ZM35.908 17.664V32.784H37.908V17.664H35.908ZM35.908 32.784C35.908 34.5999 35.561 36.1285 34.9036 37.401L36.6804 38.319C37.511 36.7115 37.908 34.8561 37.908 32.784H35.908ZM34.9036 37.401C34.2449 38.6758 33.3213 39.6488 32.123 40.3426L33.125 42.0734C34.6627 41.1832 35.8511 39.9242 36.6804 38.319L34.9036 37.401ZM32.1345 40.336C30.9494 41.0013 29.4595 41.36 27.62 41.36V43.36C29.7165 43.36 31.5626 42.9507 33.1135 42.08L32.1345 40.336Z" fill="white"/>
<defs>
<linearGradient id="paint0_linear_879_138" x1="27.5" y1="0" x2="27.5" y2="55" gradientUnits="userSpaceOnUse">
<stop stop-color="#7A72AD"/>
<stop offset="1" stop-color="#51459E"/>
</linearGradient>
<linearGradient id="paint1_linear_879_138" x1="27.5" y1="0" x2="27.5" y2="55" gradientUnits="userSpaceOnUse">
<stop stop-color="#7A72AD"/>
<stop offset="1" stop-color="#51459E"/>
</linearGradient>
</defs>
</svg>
