<svg width="26" height="25" viewBox="0 0 26 25" fill="none" xmlns="http://www.w3.org/2000/svg">
<path d="M17.8 8.19922C19.7095 8.19922 21.5409 8.95779 22.8911 10.3081C24.2414 11.6583 25 13.4897 25 15.3992V23.7992H20.2V15.3992C20.2 14.7627 19.9471 14.1522 19.497 13.7022C19.0469 13.2521 18.4365 12.9992 17.8 12.9992C17.1635 12.9992 16.553 13.2521 16.1029 13.7022C15.6528 14.1522 15.4 14.7627 15.4 15.3992V23.7992H10.6V15.3992C10.6 13.4897 11.3585 11.6583 12.7088 10.3081C14.0591 8.95779 15.8904 8.19922 17.8 8.19922Z" stroke="url(#paint0_linear_869_100)" stroke-linecap="round" stroke-linejoin="round"/>
<path d="M5.8 9.40039H1V23.8004H5.8V9.40039Z" stroke="url(#paint1_linear_869_100)" stroke-linecap="round" stroke-linejoin="round"/>
<path d="M3.4 5.8C4.72548 5.8 5.8 4.72548 5.8 3.4C5.8 2.07452 4.72548 1 3.4 1C2.07452 1 1 2.07452 1 3.4C1 4.72548 2.07452 5.8 3.4 5.8Z" stroke="url(#paint2_linear_869_100)" stroke-linecap="round" stroke-linejoin="round"/>
<defs>
<linearGradient id="paint0_linear_869_100" x1="17.8" y1="8.19922" x2="17.8" y2="23.7992" gradientUnits="userSpaceOnUse">
<stop stop-color="#7A72AD"/>
<stop offset="1" stop-color="#403680"/>
</linearGradient>
<linearGradient id="paint1_linear_869_100" x1="3.4" y1="9.40039" x2="3.4" y2="23.8004" gradientUnits="userSpaceOnUse">
<stop stop-color="#7A72AD"/>
<stop offset="1" stop-color="#403680"/>
</linearGradient>
<linearGradient id="paint2_linear_869_100" x1="3.4" y1="1" x2="3.4" y2="5.8" gradientUnits="userSpaceOnUse">
<stop stop-color="#7A72AD"/>
<stop offset="1" stop-color="#403680"/>
</linearGradient>
</defs>
</svg>
